<svg xmlns="http://www.w3.org/2000/svg" version="1.1" xmlns:xlink="http://www.w3.org/1999/xlink" xmlns:svgjs="http://svgjs.dev/svgjs" width="2000" height="2330" viewBox="0 0 2000 2330"><g transform="matrix(1,0,0,1,1.0865252791253397,0.9433198380565955)"><svg viewBox="0 0 212 247" data-background-color="#5e1914" preserveAspectRatio="xMidYMid meet" height="2330" width="2000" xmlns="http://www.w3.org/2000/svg" xmlns:xlink="http://www.w3.org/1999/xlink"><g id="tight-bounds" transform="matrix(1,0,0,1,-0.11517167958729146,-0.09999999999999432)"><svg viewBox="0 0 212.23034335917458 247.2" height="247.2" width="212.23034335917458"><g><svg viewBox="0 0 318.3374502857142 370.7906064" height="247.2" width="212.23034335917458"><g><svg viewBox="0 0 318.3374502857142 370.7906064" height="370.7906064" width="318.3374502857142"><g id="textblocktransform"><svg viewBox="0 0 318.3374502857142 370.7906064" height="370.7906064" width="318.3374502857142" id="textblock"><g><rect width="318.3374502857142" height="247.2" fill="none" stroke-width="9.018103199999999" stroke="#ffffff" data-fill-palette-color="none" data-stroke-palette-color="tertiary"></rect><rect width="318.3374502857142" height="123.5906064" y="247.2" fill="#ffffff" data-fill-palette-color="tertiary"></rect></g><g><svg viewBox="0 0 318.3374502857142 247.2" height="247.2" width="318.3374502857142"><g transform="matrix(1,0,0,1,23.607599999999998,23.607599999999998)"><svg width="271.12225028571424" viewBox="4.58 -35.39 47.97 35.39" height="199.9848" data-palette-color="#ed1703"><path d="M8.44-13.04L8.44 0 4.58 0 4.58-33.27 8.44-33.27 8.44-16.76 23.53-33.27 28.08-33.27 14.71-18.81 28.59 0 24.04 0 11.93-16.13 8.44-13.04ZM36.32-9.33L36.32 0 32.58 0 32.58-35.39 36.32-35.39 36.32-16.63Q36.32-15.22 36.15-12.77L36.15-12.77 36.32-12.77Q37.36-14.23 39.3-16.41L39.3-16.41 47.34-24.92 51.84-24.92 41.73-14.31 52.55 0 47.98 0 39.15-11.78 36.32-9.33Z" opacity="1" transform="matrix(1,0,0,1,0,0)" fill="#ffffff" class="wordmark-text-0" data-fill-palette-color="primary" id="text-0"></path></svg></g></svg></g></svg></g></svg></g></svg></g><defs></defs></svg><rect width="212.23034335917458" height="247.2" fill="none" stroke="none" visibility="hidden"></rect></g></svg></g></svg>